<?xml version="1.0" encoding="utf-8"?>
<!-- Generator: Adobe Illustrator 26.3.1, SVG Export Plug-In . SVG Version: 6.00 Build 0)  -->
<svg version="1.1" id="Layer_1" xmlns="http://www.w3.org/2000/svg" xmlns:xlink="http://www.w3.org/1999/xlink" x="0px" y="0px"
	 viewBox="0 0 34.3 34.3" style="enable-background:new 0 0 34.3 34.3;" xml:space="preserve">
	<style type="text/css"> .st0{fill:#767ABE;} .st1{fill:#FFFFFF;} </style>
	<circle class="st0" cx="17.1" cy="17.1" r="17.1"/>
	<path class="st1" d="M27.8,17.2c0-5.9-4.8-10.7-10.7-10.7S6.4,11.3,6.4,17.2c0,5.4,3.9,9.8,9,10.6v-7.5h-2.7v-3.1h2.7v-2.3
		c0-2.7,1.6-4.2,4-4.2c1.2,0,2.4,0.2,2.4,0.2v2.7h-1.3c-1.3,0-1.8,0.8-1.8,1.7v2.1h3l-0.4,3.1h-2.5v7.5C24,27,27.8,22.6,27.8,17.2
		L27.8,17.2z"/>
</svg>
