<svg version="1.1" id="Layer_1" xmlns="http://www.w3.org/2000/svg" x="0" y="0" viewBox="0 0 453 453" xml:space="preserve"><style>.st0{fill:#fff}</style><path class="st0" d="M438 433.7l-419.3.6.6-418.7c0-8.3-.5-15-8.8-15S0 6.7 0 15v423c0 8.3 6.7 15 15 15h423c8.3 0 14.4-2.2 14.4-10.5s-6.1-8.8-14.4-8.8z"/><path class="st0" d="M57 406h78.9c5.5 0 10-4.5 10-10v-82.8c0-5.5-4.5-10-10-10H57c-5.5 0-10 4.5-10 10V396c0 5.5 4.5 10 10 10zm10-82.9h58.9V386H67v-62.9zM179.1 406H258c5.5 0 10-4.5 10-10V180.4c0-5.5-4.5-10-10-10h-78.9c-5.5 0-10 4.5-10 10V396c0 5.5 4.5 10 10 10zm10-215.6H248V386h-58.9V190.4zm116 215.6H384c5.5 0 10-4.5 10-10V49.2c0-5.5-4.5-10-10-10h-78.9c-5.5 0-10 4.5-10 10V396c0 5.5 4.4 10 10 10zm10-346.8H374V386h-58.9V59.2z"/></svg>