<?xml version="1.0" encoding="utf-8"?>
<!-- Generator: Adobe Illustrator 26.3.1, SVG Export Plug-In . SVG Version: 6.00 Build 0)  -->
<svg version="1.1" id="Layer_1" xmlns="http://www.w3.org/2000/svg" xmlns:xlink="http://www.w3.org/1999/xlink" x="0px" y="0px"
	 viewBox="0 0 34.3 34.3" style="enable-background:new 0 0 34.3 34.3;" xml:space="preserve">
	<style type="text/css"> .st0{fill:#767ABE;} .st1{fill:#FFFFFF;} </style>
	<circle class="st0" cx="17.1" cy="17.1" r="17.1"/>
	<path class="st1" d="M17.1,8.3c2.9,0,3.2,0,4.4,0.1c3,0.1,4.3,1.5,4.4,4.4C26,14,26,14.2,26,17.1s0,3.2-0.1,4.3
		c-0.1,2.9-1.5,4.3-4.4,4.4c-1.2,0.1-1.4,0.1-4.4,0.1c-2.9,0-3.2,0-4.3-0.1c-3-0.1-4.3-1.5-4.4-4.4c-0.1-1.2-0.1-1.4-0.1-4.3
		s0-3.2,0.1-4.3c0.1-3,1.4-4.3,4.4-4.5C13.9,8.3,14.2,8.3,17.1,8.3z M17.1,6.4c-3,0-3.3,0-4.4,0.1c-3.9,0.2-6.1,2.3-6.3,6.3
		c-0.1,1.2-0.1,1.5-0.1,4.4s0,3.3,0.1,4.4c0.2,3.9,2.3,6.1,6.3,6.3c1.2,0.1,1.5,0.1,4.4,0.1s3.3,0,4.4-0.1c3.9-0.2,6.1-2.3,6.3-6.3
		c0.1-1.2,0.1-1.5,0.1-4.4s0-3.3-0.1-4.4c-0.2-3.9-2.3-6.1-6.3-6.3C20.4,6.4,20.1,6.4,17.1,6.4z M17.1,11.6c-3,0-5.5,2.5-5.5,5.5
		s2.5,5.5,5.5,5.5s5.5-2.5,5.5-5.5S20.1,11.6,17.1,11.6z M17.1,20.7c-2,0-3.6-1.6-3.6-3.6s1.6-3.6,3.6-3.6s3.6,1.6,3.6,3.6
		S19.1,20.7,17.1,20.7z M22.8,10.1c-0.7,0-1.3,0.5-1.3,1.3c0,0.7,0.5,1.3,1.3,1.3c0.7,0,1.3-0.5,1.3-1.3
		C24.1,10.7,23.5,10.1,22.8,10.1z"/>
</svg>
