<?xml version="1.0" encoding="utf-8"?>
<!-- Generator: Adobe Illustrator 26.3.1, SVG Export Plug-In . SVG Version: 6.00 Build 0)  -->
<svg version="1.1" id="Layer_1" xmlns="http://www.w3.org/2000/svg" xmlns:xlink="http://www.w3.org/1999/xlink" x="0px" y="0px"
	 viewBox="0 0 34.3 34.3" style="enable-background:new 0 0 34.3 34.3;" xml:space="preserve">
	<style type="text/css"> .st0{fill:#767ABE;} .st1{fill:#FFFFFF;} </style>
	<circle class="st0" cx="17.1" cy="17.1" r="17.1"/>
	<path class="st1" d="M27.8,10.5c-0.8,0.4-1.6,0.6-2.5,0.7c0.9-0.6,1.6-1.4,1.9-2.4c-0.9,0.5-1.8,0.9-2.8,1.1
		c-0.8-0.9-1.9-1.3-3.2-1.3c-2.8,0-4.9,2.6-4.2,5.4c-3.7-0.2-6.8-1.9-9-4.6c-1.2,2-0.7,4.5,1.3,5.9c-0.7,0-1.3-0.2-2-0.6
		c0,2,1.4,3.9,3.5,4.3c-0.6,0.2-1.3,0.2-2,0.1c0.6,1.7,2.2,3,4,3.1c-1.8,1.4-4.1,2.1-6.4,1.8c1.9,1.3,4.2,1.9,6.7,1.9
		c8.1,0,12.7-6.8,12.4-13C26.5,12.1,27.3,11.3,27.8,10.5z"/>
</svg>
