<?xml version="1.0" encoding="utf-8"?>
<!-- Generator: Adobe Illustrator 26.1.0, SVG Export Plug-In . SVG Version: 6.00 Build 0)  -->
<svg version="1.1" id="Layer_1" xmlns="http://www.w3.org/2000/svg" xmlns:xlink="http://www.w3.org/1999/xlink" x="0px" y="0px"
	 viewBox="0 0 410.3 379.2" style="enable-background:new 0 0 410.3 379.2;" xml:space="preserve">
<style type="text/css">
	.st0{fill:#FFFFFF;}
</style>
<g>
	<path class="st0" d="M325,311.9c0,9.7,0,19.1,0,28.6c0,1.2,0.1,2.3,0,3.5c-0.5,6.6-4.7,10.5-11.2,10.5c-34.8,0-69.7,0-104.5,0
		c-37.2,0-74.5-0.1-111.7,0.1c-7.2,0-12.5-4.3-12.3-12.3c0.2-9.1,0-18.2,0-27.2c0-0.9,0-1.8,0-3c-1.1,0-2.1,0-3.1,0
		c-23.4,0-46.8,0-70.2,0c-6,0-10-2.7-11.5-7.7c-0.3-1.1-0.4-2.3-0.4-3.4c0-17.4-0.2-34.8,0.1-52.2c0.3-21,7.4-39.7,20.3-56.1
		c9.5-12.1,21.4-21.3,35.4-27.8c0.4-0.2,0.8-0.3,1.1-0.6c0.1-0.1,0.2-0.2,0.4-0.5c-6.1-7.1-11.1-14.9-14.8-23.5
		C25.5,99.4,44.1,51.5,84.1,32.8c34.3-16,73.9-7.7,98.8,20.8c3.5,4,6.3,8.7,9.3,13.2c0.7,1.1,1.4,1.4,2.8,1.4
		c6.6-0.2,13.3-0.3,19.9,0c1.8,0.1,2.5-0.4,3.3-1.7c9.7-16.6,23.5-28.6,41.3-35.7c48-19.2,102.2,9.8,112.6,60.5
		c5.5,26.6-1.1,50.4-18.3,71.3c-0.3,0.4-0.6,0.8-1.1,1.3c0.8,0.4,1.5,0.8,2.3,1.1c29.4,13.9,47.3,36.9,53.5,68.8
		c1.1,5.9,1.5,12.1,1.5,18.1c0.2,16.1-0.1,32.2,0.1,48.2c0.1,7.3-4.9,12-12,11.9c-23.3-0.1-46.7,0-70,0
		C327.4,311.9,326.4,311.9,325,311.9z M303.6,333.2c0-0.9,0.1-1.6,0.1-2.2c0-12.7,0-25.5,0-38.2c0-3.2-0.1-6.5-0.6-9.7
		c-5.5-30.2-22.9-50.1-52.1-59.7c-1.8-0.6-3.2-0.4-4.9,0.5c-11.9,6.9-24.6,10.6-38.4,11c-15.7,0.5-30.2-3.6-43.8-11.2
		c-1-0.5-2.4-0.8-3.5-0.6c-30,7.3-53.4,36.9-53.6,67.9c-0.1,13.3,0,26.7,0,40c0,0.7,0.1,1.4,0.2,2.3
		C172.4,333.2,237.8,333.2,303.6,333.2z M205.6,88.6c-34.3-0.3-62.5,27.6-62.9,62c-0.3,33.9,27.7,62.5,61.6,62.8
		c34.7,0.3,63.2-27.5,63.2-62.1C267.6,116.6,240.4,88.7,205.6,88.6z M171.7,74.3c-13.8-22.6-45-35.5-74.3-24.1
		c-30.2,11.7-46.6,44.4-37.6,75.2c9.3,31.8,39,47.1,64.2,45.1c-4.7-19.7-2.6-38.6,6.3-56.7C139.3,95.7,153.3,82.6,171.7,74.3z
		 M239.3,73.9c38.7,21,55.2,52.9,47.9,96.7c28.1,1.8,57.1-17.2,64.2-49.5c6.9-31.6-11.4-62.5-41.5-72.4
		C280.4,38.9,251,53.3,239.3,73.9z M20.9,290.8c21.8,0,43,0,64.2,0c3.2-39.1,22.5-67,57.3-83.9c-3.4-4.9-6.7-9.8-10.1-14.6
		c-0.4-0.5-1.5-0.7-2.3-0.7c-3.3,0.2-6.6,0.7-10,0.7c-14.8-0.1-28.5-4-41.3-11.3c-1.1-0.6-2.7-0.9-3.9-0.6
		c-28.3,7.7-49.8,31.6-52.8,61.4C20.3,258,21.2,274.3,20.9,290.8z M325.2,290.3c21.3,0,42.5,0,63.9,0c0-1.1,0-2,0-2.9
		c0-11.9,0.1-23.8-0.1-35.7c-0.1-5.1-0.4-10.4-1.5-15.3c-6.4-29-24.2-47.5-52.3-56.3c-0.9-0.3-2.3-0.1-3.2,0.5
		c-16.2,9.3-33.5,13-52,10.8c-0.7-0.1-1.8,0.5-2.3,1.1c-3,4.1-6,8.2-8.9,12.3c-0.4,0.6-0.8,1.1-1.2,1.6
		C303,223.4,322.1,251.4,325.2,290.3z"/>
</g>
</svg>
