<?xml version="1.0" encoding="utf-8"?>
<!-- Generator: Adobe Illustrator 26.1.0, SVG Export Plug-In . SVG Version: 6.00 Build 0)  -->
<svg version="1.1" id="Layer_1" xmlns="http://www.w3.org/2000/svg" xmlns:xlink="http://www.w3.org/1999/xlink" x="0px" y="0px"
	 viewBox="0 0 422 432" style="enable-background:new 0 0 422 432;" xml:space="preserve">
<style type="text/css">
	.st0{fill:#FFFFFF;}
</style>
<g>
	<path class="st0" d="M402.1,199.2c-0.2-10.7-7.3-19.4-17.7-21.7c-8.3-1.9-16.8-3.1-25.3-4.5c-2.4-0.4-3.6-1.4-4.5-3.7
		c-2.5-6.7-5.3-13.3-8.2-19.9c-1-2.2-1-3.7,0.5-5.7c4.6-6.1,9-12.3,13.3-18.5c7.5-10.8,6.7-22.5-2.4-31.9
		c-7.5-7.7-15-15.3-22.7-22.7c-9.5-9.2-21.1-10-31.9-2.5c-6.3,4.4-12.6,8.8-18.8,13.4c-1.7,1.2-3,1.4-5,0.5
		c-7.2-3.1-14.4-6.1-21.7-8.9c-2.1-0.8-3-1.8-3.3-3.9c-1.2-7.6-2.5-15.2-3.8-22.8c-2-11.7-10.6-20-21.9-20.4
		c-12.2-0.4-24.4-0.4-36.6,0c-10.4,0.3-19,7.5-21.3,17.7c-1.9,8.5-3.2,17.1-4.6,25.7c-0.4,2.3-1.2,3.6-3.6,4.5
		c-6.8,2.6-13.5,5.5-20.2,8.5c-2.2,0.9-3.6,0.8-5.4-0.6c-5.8-4.3-11.6-8.5-17.5-12.7c-11.7-8.4-23.4-7.5-33.6,2.6
		c-7,7-14.1,14-21.1,21.1c-10,10.1-11,21.7-2.9,33.3c4.4,6.3,9,12.5,13.3,18.9c0.7,1,1,3,0.5,4.2c-2.7,7.1-5.6,14.3-8.7,21.3
		c-0.6,1.3-2.2,2.7-3.5,3c-7.6,1.5-15.2,2.6-22.8,3.9c-7.3,1.2-13.3,4.7-17.2,11.2c-1.5,2.5-2.3,5.4-3.5,8.1c0,13.9,0,27.8-0.2,42.1
		c2,5.7,4.1,11.4,9.5,14.7c3.4,2,7.3,3.7,11.2,4.6c7.5,1.7,15.1,2.7,22.7,3.9c2.4,0.4,3.8,1.3,4.7,3.8c2.5,6.8,5.4,13.4,8.4,19.9
		c1,2.2,0.9,3.8-0.6,5.7c-4.4,5.8-8.7,11.8-12.9,17.8c-7.9,11.2-7,22.9,2.6,32.7c7.2,7.4,14.5,14.7,21.9,21.9
		c9.7,9.6,21.3,10.5,32.4,2.7c6.4-4.5,12.7-9.1,19.2-13.5c1.2-0.7,3.3-0.9,4.6-0.4c6.7,2.6,13.3,5.5,20,8.1c2.2,0.8,3.1,2,3.4,4.2
		c1.1,7.3,2.5,14.5,3.6,21.7c1.7,11,7.7,18.3,18.7,21.1c0.3,0.1,0.6,0.4,0.9,0.6c13.9,0,27.9,0,41.8,0c0.5-0.3,1-0.6,1.6-0.8
		c10-2.9,15.8-9.5,17.7-19.6c1.4-7.6,2.7-15.2,3.8-22.8c0.4-2.6,1.5-3.8,3.9-4.7c6.7-2.6,13.3-5.4,19.9-8.3c2.1-0.9,3.5-0.9,5.4,0.5
		c6,4.4,12.1,8.7,18.2,13c11.4,8,23,7.1,33-2.7c7.2-7.1,14.5-14.3,21.6-21.6c9.7-9.9,10.5-21.5,2.6-32.8
		c-4.4-6.2-8.9-12.3-13.1-18.6c-0.7-1.1-1-3.2-0.5-4.5c2.7-7.2,5.7-14.3,8.8-21.3c0.5-1.2,2.2-2.5,3.6-2.8
		c7.7-1.5,15.5-2.6,23.2-3.9c12.1-2.1,20.3-11.2,20.5-23.1C402.4,222.6,402.4,210.9,402.1,199.2z M381.1,231.6
		c0,3.1-1.2,4.4-4.2,4.9c-9.6,1.4-19.1,3.2-28.7,4.6c-6.2,0.9-9.7,4.2-11.8,10.2c-3.6,10.1-7.8,20.1-12.4,29.8
		c-2.7,5.7-2.7,10.5,1.1,15.6c5.7,7.6,11,15.6,16.7,23.3c2,2.7,2.2,4.5-0.4,7c-6.9,6.6-13.7,13.4-20.3,20.3
		c-2.2,2.3-3.9,2.3-6.4,0.5c-8-5.9-16.1-11.4-24-17.2c-4.9-3.6-9.6-4.1-14.9-1c-9.7,5.7-20,9.9-30.9,12.8c-5.3,1.4-8.4,4.7-9.3,10.3
		c-1.6,9.8-3.4,19.6-4.9,29.4c-0.5,3.4-1.8,4.7-5.3,4.6c-9.5-0.2-18.9-0.2-28.4,0c-3.5,0.1-4.7-1.3-5.2-4.6
		c-1.4-9.6-3.1-19.1-4.6-28.7c-0.9-5.9-4.2-9.2-9.9-11.2c-9.9-3.6-19.7-7.5-29.2-12c-5.7-2.7-10.5-2.7-15.6,1.1
		c-7.9,5.9-16.1,11.4-24,17.2c-2.5,1.9-4.1,1.8-6.3-0.5c-6.8-7-13.7-13.8-20.6-20.6c-2-2-2.3-3.7-0.5-6.1c5.8-7.9,11.4-16,17.2-23.9
		c3.7-5,3.6-9.7,1-15.3c-4.7-9.8-8.8-19.9-12.7-30.1c-2.1-5.6-5.2-9-11.3-9.9c-9.8-1.5-19.6-3.4-29.4-4.9c-3-0.5-4.2-1.7-4.1-4.9
		c0.2-9.7,0.2-19.4,0-29.1c0-3,1-4.3,3.9-4.7c9.4-1.5,18.8-3.2,28.3-4.6c6.5-0.9,10.1-4.2,12.3-10.6c3.5-10.1,7.6-20,12.1-29.6
		c2.7-5.8,2.7-10.5-1.1-15.6c-5.9-7.8-11.4-16-17.2-23.9c-1.8-2.5-1.8-4.2,0.5-6.4c7-6.8,13.9-13.6,20.6-20.6
		c2.2-2.3,3.9-2.2,6.3-0.4c7.8,5.8,15.8,11.2,23.6,17c5.1,3.9,9.9,3.7,15.6,1c9.6-4.6,19.4-8.8,29.4-12.4c6.2-2.3,9.7-5.8,10.6-12.4
		c1.4-9.4,3.2-18.8,4.7-28.3c0.5-3.2,1.8-4.4,5.1-4.3c9.7,0.2,19.4,0.1,29.1,0c2.8-0.1,4,0.9,4.4,3.7c1.5,10.1,3.4,20.1,5,30.2
		c0.9,5.4,3.9,8.7,9.1,10.1c11.3,2.9,22.1,7.4,32.3,13.2c5,2.8,9.6,2.4,14.2-1c8.1-6,16.4-11.8,24.5-17.7c2.1-1.5,3.6-1.6,5.5,0.3
		c7,7.2,14.2,14.2,21.3,21.4c0.7,0.7,1.3,1.7,2,2.7c-0.8,1.2-1.4,2.3-1.9,3.5c-5.6,7.9-11.1,15.9-16.9,23.7
		c-3.9,5.2-3.6,9.9-0.9,15.6c4.6,9.6,8.8,19.5,12.3,29.5c2.1,6,5.3,9.5,11.6,10.4c9.4,1.4,18.8,3.2,28.3,4.6c3.6,0.6,4.8,2,4.7,5.6
		C380.9,212.7,381,222.1,381.1,231.6z"/>
	<path class="st0" d="M211,134.3c-45.7,0.3-82.4,37.1-82.3,82.5c0.1,45.5,36.9,82.3,82.4,82.4c45.5,0.1,82.3-36.6,82.5-82.3
		C293.9,171.6,256.3,134,211,134.3z M211.3,277.8c-33.1,0.4-60.4-26.6-61.1-60.5c-0.7-33.1,26.9-61,60.7-61.4
		c33.2-0.4,60.5,26.7,61.2,60.5C272.8,249.5,245.3,277.3,211.3,277.8z"/>
</g>
</svg>
